<?xml version="1.0" encoding="utf-8"?>
<!-- Generator: Adobe Illustrator 15.0.2, SVG Export Plug-In  -->
<!DOCTYPE svg [
	<!ENTITY ns_flows "http://ns.adobe.com/Flows/1.0/">
]>
<svg version="1.2" baseProfile="tiny"
	 xmlns="http://www.w3.org/2000/svg" xmlns:xlink="http://www.w3.org/1999/xlink" xmlns:a="http://ns.adobe.com/AdobeSVGViewerExtensions/3.0/"
	 x="0px" y="0px" width="1468px" height="1468px" viewBox="-446.249 -449.2686 1468 1468" overflow="visible" xml:space="preserve">
<defs>
</defs>
<path fill="none" stroke="#000000" d="M77.7383,1.1797c9.9941-1.6396,18.7559-0.5239,23.8662,5.6826
	c3.5234,4.2798,1.6553,9.2261,4.5459,15.9106c4.4424,10.2773,23.6504,17.9775,30.6846,32.9575
	c7.1592,15.2476,8.4336,30.1069,5.6826,51.1411c-0.4756,3.6284-3.1357,7.0664-3.4102,10.228
	c-0.6221,7.166,2.8789,17.7988-5.6816,20.4565c-7.9736,2.4741-15.709-4.7383-15.9111-7.9556
	c-0.2539-4.0342,9.3242-7.0708,10.2285-13.6372c0.5488-3.9902-1.2812-10.7139-5.6826-11.3652
	c-5.7314-0.8472-11.4463,13.5488-13.6377,17.0474c-10.6045,16.938-21.8799,39.6553-34.0938,54.5503
	c-4.9619,6.0513-12.3311,7.0264-17.0469,14.7744c-2.2334,3.6689-3.1055,15.8691-6.8193,19.3198
	c-8.2871,7.6987-22.6846,3.3887-23.8652,1.1362c-3.3096-6.3135,6.7168-15.1826,9.0918-22.7295
	c0.9961-3.1646,0.3184-7.1816,1.1357-9.0918c7.0771-16.5269,25.707-46.0122,25.0029-59.0962
	c-0.8555-15.8838-22.7539-29.6279-25.0029-42.0493c-0.4326-2.3877,8.124-26.1602,2.2734-30.6846
	c-4.9688-3.8418-21.9531,15.6211-22.7295,19.3203c-1.5347,7.314,4.5898,33.1987-12.501,21.5928
	c-10.5117-7.1387,6.499-38.2144,11.3647-48.8682c2.647-5.7969,7.6504-11.7021,7.9551-13.6377
	c1.5552-9.8867-8.6265-2.0479-2.2729-12.501c1.4487-2.3838,22.9014-6.9492,28.4121-7.9556
	C62.085,3.396,68.5645,2.6851,77.7383,1.1797z"/>
</svg>
