<?xml version="1.0" encoding="utf-8"?>
<!-- Generator: Adobe Illustrator 15.0.2, SVG Export Plug-In  -->
<!DOCTYPE svg PUBLIC "-//W3C//DTD SVG 1.1//EN" "http://www.w3.org/Graphics/SVG/1.1/DTD/svg11.dtd" [
	<!ENTITY ns_flows "http://ns.adobe.com/Flows/1.0/">
]>
<svg version="1.1"
	 xmlns="http://www.w3.org/2000/svg" xmlns:xlink="http://www.w3.org/1999/xlink" xmlns:a="http://ns.adobe.com/AdobeSVGViewerExtensions/3.0/"
	 x="0px" y="0px" width="1468px" height="1468px" viewBox="0.5 0.5 1468 1468"
	 overflow="visible" enable-background="new 0.5 0.5 1468 1468" xml:space="preserve">
<defs>
</defs>
<rect x="0.5" y="0.5" display="none" fill="none" stroke="#FF0000" width="1468.347" height="1468.345"/>
<path display="none" fill="none" stroke="#000000" d="M1115.611,407.81c28.854-3.634,28.238,49.607,26.139,79.553
	c-1.492,21.273-18.253,42.399-26.139,47.732c-4.408,2.98-10.771,1.169-12.501,6.818c-2.795,9.114,12.564,27.623,0,37.504
	c-5.973,4.695-35.024,4.978-44.322-1.137c-4.418-2.905-5.221-9.562-7.956-11.365c-2.867-1.891-11.149-0.424-13.638-4.546
	c-3.103-5.138,7.014-16.431,14.774-18.184c8.27-1.867,10.672,4.102,14.774,0c3.433-3.432-1.179-14.117-1.137-19.32
	c0.045-5.626,7.281-21.239,0-26.139c-10.458-7.038-20.262,12.585-36.367,11.365c-8.107-0.615-13.259-9.551-22.729-13.638
	c-4.59-1.981-16.518-0.431-18.184-6.819c-1.347-5.167,3.396-10.427,9.092-11.365c12.472-2.052,17.049,8.877,22.729,9.092
	c5.758,0.217,35.763-19.049,38.641-25.002c1.572-3.253-0.978-8.163,1.136-13.638c2.498-6.474,30.569-28.157,37.504-32.957
	C1102.023,412.583,1111.052,408.384,1115.611,407.81z"/>
<path display="none" fill="none" stroke="#000000" d="M1079.244,558.96c0.4-2.747-4.253-3.689-6.819-2.273
	C1065.901,560.286,1078.504,564.022,1079.244,558.96z"/>
<path display="none" fill="none" stroke="#000000" d="M323.492,453.268c7.376-1.406,9.751,8.302,17.047,12.501
	c7.248,4.172,20.708,5.217,34.094,6.819c16.677,1.995,22.833,13.176,32.958,17.047c2.678,1.024,9.05-0.348,11.365,1.137
	c2.874,1.843,2.931,9.849,6.819,14.774c7.344,9.301,24.12,8.586,20.457,21.593c-0.767,2.721-5.843,5.598-6.819,5.682
	c-6.718,0.58-7.935-13.407-13.638-12.501c-5.156,0.82-8.205,34.822-6.819,45.459c1.095,8.403,9.228,19.762,11.365,32.958
	c2.708,16.722,7.144,37.459,3.41,44.322c-2.141,3.934-10.351,7.156-13.638,5.682c-5.317-2.384-3.542-14.408-4.546-21.593
	c-1.516-10.84-4.581-22.616-9.092-30.685c-2.733-4.888-8.113-8.238-10.228-12.501c-4.934-9.947-2.806-27.168-11.365-30.685
	c-6.002-2.465-15.17,1.814-23.866,0c-7.964-1.661-9.264-7.55-14.774-6.819c-6.286,0.834-3.916,8.185-10.228,9.092
	c-2.545,0.366-10.702-3.643-12.501-7.955c-1.39-3.332,0.984-7.115,0-10.229c-1.469-4.649-6.056-7.76-9.091-13.638
	c-1.316-2.547-1.634-6.908-3.41-10.228c-4.395-8.219-12.832-12.461-13.638-18.183C296.134,486.658,315.802,454.734,323.492,453.268z
	"/>
<path display="none" fill="none" stroke="#000000" d="M130.293,690.79c5.865-0.217,6.809,3.802,13.638,6.819
	c7.659,3.385,17.283,2.689,25.002,5.683c13.78,5.342,27.943,20.758,35.23,32.957c2.837,4.749,8.768,8.866,10.229,12.501
	c1.482,3.689,0.583,8.056,2.273,11.365c2.722,5.334,8.344,6.887,13.638,11.364c5.044,4.267,13.073,16.624,23.866,22.729
	c2.68,1.516,29.608,11.304,18.184,22.729c-5.61,5.61-18.533-5.532-25.002-9.092c-3.861-2.124-12.461-3.869-13.638-4.546
	c-2.68-1.541-5.944-6.647-9.092-7.955c-3.72-1.545-9.665-0.862-13.638-2.273c-8.149-2.892-18.446-13-25.002-13.637
	c-7.835-0.762-14.929,5.64-26.139,6.818c-17.222,1.811-30.763-2.059-45.458-4.546c0.356,0.06-11.334-1.673-12.501,0
	c-1.579,2.263,14.243,19.971,19.32,23.866c8.573,6.577,34.421,12.476,28.412,22.729c-1.146,1.956-0.173,3.175-12.501,1.137
	c-21.729-3.591-67.017-34.314-77.28-52.277c-1.615-2.827-4.469-11.5-4.546-12.501c-0.238-3.127,3.312-8.164,3.409-11.365
	c0.381-12.592-9.48-22.897,0-36.367c10.208-14.502,43.159-18.291,62.506-22.729C124.335,693.48,126.956,690.913,130.293,690.79z"/>
<path display="none" fill="none" stroke="#000000" d="M1038.331,789.663c10.036-2.342,9.489,10.18,15.91,10.229
	c6.303,0.048,6.901-8.956,12.502-10.229c17.331-3.936,32.099,13.269,40.912,14.774c15.615,2.668,18.674-3.894,26.139-2.273
	c23.485,5.096,25.951,44.464,9.092,60.233c-2.055,1.922-6.994,2.945-10.228,5.683c-0.511,0.433-20.559,19.931-20.457,20.456
	c1.153,5.909,15.904,1.474,15.911,11.364c0.007,10.846-11.113,4.61-23.866,6.819c-3.996,0.692-6.093,4.924-11.364,6.818
	c-8.268,2.972-30.544,5.945-38.641,3.409c-3.598-1.127-9.185-11.574-13.637-14.773c-15.88-11.41-42.545-20.182-43.187-34.094
	c-0.643-13.939,11.449-12.166,18.184-7.956c2.682,1.676,4.766,7.023,9.092,6.819c9.475-0.447,19.265-27.38,15.911-42.05
	C1038.969,817.742,1022.228,793.42,1038.331,789.663z"/>
<path display="none" fill="none" stroke="#000000" d="M792.854,877.17c1.103-0.709,7.716-1.84,11.364-1.136
	c25.322,4.885,41.408,43.023,31.821,79.553c-1.793,6.832-8.601,12.196-9.092,18.184c-0.387,4.705,3.889,9.16,4.546,15.91
	c1.231,12.657-0.585,28.105-9.092,29.548c-6.906,1.171-14.363-8.299-20.456-9.092c-4.747-0.618-19.823,0.563-27.275,3.41
	c-7.317,2.795-10.65,11.853-18.184,13.637c-20.035,4.746-36.706-3.662-37.503-15.91c-0.506-7.772,8.347-12.305,9.091-19.32
	c0.758-7.132-7.232-17.864-9.091-26.139c-4.454-19.816-6.172-37.438-15.911-51.141c-5.854-8.236-7.504-3.683-14.774-14.774
	c-2.564-3.912-8.764-16.311,1.137-19.319c8.612-2.617,15.078,9.51,20.457,13.638c7.136,5.476,14.476,7.504,19.32,11.364
	c5.807,4.628,12.18,15.276,17.047,17.047c6.168,2.243,21.471,0.661,32.958,1.137c6.335,0.262,26.214,3.403,29.548-4.546
	C812.833,909.516,782.643,883.736,792.854,877.17z"/>
<path display="none" fill="none" stroke="#000000" d="M423.501,1102.191c2.343-0.234,18.367,0.459,20.457,4.546
	c6.005,11.746-17.323,15.797-21.593,25.003c-2.268,4.889-1.172,13.786-3.41,18.184c0.459-0.901-4.233,4.502-3.409,5.682
	c3.145,4.506,15.999,0.205,18.184,3.41c2.604,3.822-0.755,14.963-2.273,17.047c-7.354,10.094-33.774,1.968-38.64,6.818
	c-4.067,4.056,0.226,18.954-1.136,25.003c-1.117,4.956-14.068,15.537-11.365,19.319c1.767,2.473,13.352-0.033,17.047-2.272
	c9.024-5.469,12.114-21.088,25.002-18.184c6.733,1.517,9.053,13.235,2.273,20.456c-5.108,5.439-18.375,9.365-27.275,15.911
	c-6.585,4.843-13.687,15.209-20.457,17.047c-4.783,1.298-10.809,1.576-15.911,3.409c-9.445,3.395-17.073,11.159-31.821,7.955
	c-16.203-3.521-17.897-20.97-30.685-31.821c-3.322-2.818-8.462-2.981-11.365-5.682c-5.636-5.243-9.688-14.767-10.229-20.457
	c-0.693-7.312,4.079-11.12,4.546-18.184c0.909-13.725-10.134-27.036-1.136-40.912c10.131-15.623,34.802-28.687,59.096-34.095
	c6.875-1.53,13.761-1.157,17.047,2.273c1.797,1.877,1.3,10.715,4.545,12.501c4.724,2.6,17.027-2.318,21.593-4.546
	c4.584-2.236,11.93-7.565,17.047-12.501C408.603,1109.453,409.074,1103.64,423.501,1102.191z"/>
<path display="none" fill="none" stroke="#000000" d="M325.765,1146.513c4.749,7.724,30.119-14.362,7.956-7.955
	C330.792,1139.405,322.937,1141.913,325.765,1146.513z"/>
<path fill="none" stroke="#000000" d="M781.489,385.08c9.994-1.64,18.756-0.524,23.866,5.683c3.523,4.28,1.655,9.226,4.546,15.911
	c4.442,10.277,23.65,17.978,30.685,32.958c7.159,15.248,8.434,30.107,5.683,51.141c-0.476,3.628-3.136,7.066-3.41,10.228
	c-0.622,7.166,2.879,17.799-5.682,20.457c-7.974,2.474-15.709-4.738-15.911-7.956c-0.254-4.034,9.324-7.071,10.229-13.637
	c0.549-3.99-1.281-10.714-5.683-11.365c-5.731-0.847-11.446,13.549-13.638,17.047c-10.604,16.938-21.88,39.655-34.094,54.55
	c-4.962,6.051-12.331,7.026-17.047,14.774c-2.233,3.669-3.105,15.869-6.819,19.32c-8.287,7.699-22.685,3.389-23.865,1.136
	c-3.31-6.313,6.717-15.183,9.092-22.729c0.996-3.165,0.318-7.182,1.136-9.092c7.077-16.527,25.707-46.012,25.003-59.096
	c-0.855-15.884-22.754-29.628-25.003-42.049c-0.433-2.388,8.124-26.16,2.273-30.685c-4.969-3.842-21.953,15.621-22.729,19.32
	c-1.535,7.314,4.59,33.199-12.501,21.593c-10.512-7.139,6.499-38.214,11.365-48.868c2.647-5.797,7.65-11.702,7.955-13.638
	c1.555-9.887-8.626-2.048-2.273-12.501c1.449-2.384,22.901-6.949,28.412-7.956C765.835,387.296,772.315,386.585,781.489,385.08z"/>
</svg>
